<svg width="98" height="24" viewBox="0 0 98 24" fill="none" xmlns="http://www.w3.org/2000/svg">
<g clip-path="url(#clip0_513_8236)">
<path d="M44.0525 13.1422H33.7618C33.9597 15.9121 35.1471 16.9965 37.7316 16.9965C39.6592 16.9965 40.4923 16.5113 41.1256 14.8552L43.7715 15.8257C42.7939 18.2243 40.522 19.3617 37.702 19.3617C33.5026 19.3617 30.7755 16.5643 30.7755 12.2523C30.7755 7.94039 33.5956 5.08606 37.5654 5.08606C41.4185 5.08606 44.0961 7.74199 44.0961 11.938C44.0822 12.3702 44.0822 12.6001 44.0525 13.1422ZM33.7855 11.001H41.1474C41.0326 8.37454 39.96 7.37464 37.5852 7.37464C35.2797 7.37464 34.0428 8.51598 33.7855 11.001Z" fill="#140F33"/>
<path d="M49.8055 7.97366V16.4817H53.5656V19.0806H50.698C48.3965 19.0806 46.8727 17.568 46.8727 15.2834V7.97366H43.9675V5.37666H46.8727V1.17865H49.8055V5.37666H54.0049V7.97366H49.8055Z" fill="#140F33"/>
<path d="M69.595 12.2307C69.595 16.5131 67.1213 19.3675 63.1514 19.3675C60.8222 19.3675 59.0965 18.1888 58.1466 16.1988V23.9368H55.2137V5.37671H58.1466V8.28802C59.0965 6.26071 60.8796 5.0899 63.2385 5.0899C67.149 5.0899 69.595 7.94621 69.595 12.2307ZM66.6265 12.2307C66.6265 9.17595 65.2413 7.7478 62.3401 7.7478C59.4389 7.7478 58.0259 9.17595 58.0259 12.2307C58.0259 15.2854 59.4112 16.7135 62.3401 16.7135C65.269 16.7135 66.6325 15.2834 66.6325 12.2307H66.6265Z" fill="#140F33"/>
<path d="M82.6818 10.0579V19.0806H79.7767V16.0259C79.0286 18.2516 77.3327 19.3654 74.944 19.3654C72.1537 19.3654 70.428 17.9393 70.428 15.5407C70.428 12.594 73.0759 11.1717 77.7067 11.1717H79.7767V10.0874C79.7767 8.37438 78.8268 7.54539 76.8419 7.54539C75.0885 7.54539 73.7368 8.45885 73.7645 10.6885L70.9762 10.1168C71.0336 7.0916 73.3628 5.0918 76.9012 5.0918C80.5525 5.08983 82.6818 6.92659 82.6818 10.0579ZM79.7767 13.0281H77.8492C75.2607 13.0281 73.4202 13.7982 73.4202 15.3403C73.4202 16.4816 74.2256 17.1967 75.8365 17.1967C77.9362 17.1967 79.7767 15.798 79.7767 13.0281Z" fill="#140F33"/>
<path d="M97.3801 5.37671L91.1681 21.0215C90.333 23.1058 89.2406 23.9348 86.7095 23.9348H83.741V21.3359H88.7577L88.9299 20.7642L88.8725 20.8212L82.8623 5.37671H86.1059L89.0961 14.0203L90.0757 17.2184L91.1107 13.9987L94.1306 5.37671H97.3801Z" fill="#140F33"/>
<path d="M11.939 6.43627e-06C10.1918 -0.00180187 8.46557 0.377451 6.88231 1.11095C5.29905 1.84444 3.89746 2.91427 2.77667 4.24477C1.65587 5.57527 0.843239 7.13396 0.396229 8.8106C-0.0507805 10.4872 -0.121247 12.2409 0.189812 13.9476H23.6883C23.8122 13.2569 23.8751 12.5569 23.8763 11.8554C23.8768 10.2989 23.5684 8.75752 22.9688 7.3193C22.3691 5.88109 21.49 4.57422 20.3815 3.47331C19.273 2.37241 17.9568 1.49904 16.5083 0.903088C15.0597 0.307134 13.5071 0.000264353 11.939 6.43627e-06ZM4.43077 9.82223C4.87986 8.18738 5.85806 6.74449 7.21466 5.71589C8.57126 4.68728 10.231 4.13005 11.938 4.13005C13.6451 4.13005 15.3048 4.68728 16.6614 5.71589C18.018 6.74449 18.9962 8.18738 19.4453 9.82223H4.43077Z" fill="#72DBAA"/>
<path d="M14.0726 19.279L14.0073 19.2948C13.8727 19.3321 13.7381 19.3655 13.5996 19.3949L13.5363 19.4087C13.3779 19.4421 13.2196 19.4696 13.0573 19.4932L12.9426 19.5069C12.8199 19.5246 12.6952 19.5364 12.5685 19.5462L12.426 19.558C12.2697 19.5678 12.1134 19.5737 11.955 19.5737H11.9372C11.769 19.5737 11.6028 19.5737 11.4366 19.556H11.3396C11.1832 19.5442 11.0289 19.5266 10.8765 19.5069H10.8488C9.02954 19.2517 7.36017 18.365 6.13683 17.0042L3.03577 19.7544C4.15599 20.999 5.5283 21.9947 7.06292 22.6765C8.59754 23.3583 10.2599 23.7107 11.9412 23.7108H12.0401C12.2163 23.7108 12.3904 23.7108 12.5666 23.6971C12.62 23.6971 12.6714 23.6971 12.7249 23.6853C12.8812 23.6755 13.0376 23.6637 13.1939 23.648L13.3087 23.6342C13.4789 23.6146 13.6491 23.593 13.8173 23.5655L13.8945 23.5517C14.0765 23.5222 14.2566 23.4908 14.4347 23.4515L14.4921 23.4397C14.6761 23.3985 14.8582 23.3553 15.0403 23.3081L15.0977 23.2904C15.2758 23.2433 15.4539 23.1902 15.628 23.1333L15.7052 23.1077C15.8715 23.0527 16.0377 22.9958 16.2 22.9329L16.3088 22.8916C16.4572 22.8327 16.6057 22.7718 16.7541 22.707L16.8986 22.6422C17.0292 22.5832 17.1578 22.5223 17.2844 22.4575L17.4823 22.3632L17.8029 22.1903L18.0365 22.0568L18.2878 21.9035C18.3808 21.8446 18.4758 21.7857 18.5668 21.7248C18.6262 21.6874 18.6836 21.6462 18.741 21.6069C18.8544 21.5309 18.9653 21.4524 19.0735 21.3712L19.1487 21.3142C19.7625 20.8524 20.3304 20.3334 20.8446 19.7643L17.7456 17.014C16.7605 18.0973 15.4873 18.8825 14.0726 19.279Z" fill="#72DBAA"/>
</g>
<defs>
<clipPath id="clip0_513_8236">
<rect width="97.3091" height="24" fill="white"/>
</clipPath>
</defs>
</svg>
